<svg xmlns="http://www.w3.org/2000/svg" fill="none" viewBox="0 0 320 138">
  <path fill="#fff" d="M137.3 60.9V2h6.6v55.9h22.7v3h-29.3ZM193 60.9h-15.2V2H193c5.8 0 11.1 1.2 15.9 3.7 4.8 2.5 8.7 6 11.5 10.5 2.9 4.5 4.3 9.6 4.3 15.2s-1.4 10.7-4.3 15.2-6.7 8-11.5 10.5-10.1 3.7-15.9 3.7m-8.6-55.9v53h8.4c3.4 0 6.6-.7 9.6-2s5.7-3.2 7.9-5.6c2.3-2.4 4-4.5 5.4-8.1 1.3-3.6 2-6.6 2-10.8 0-4.2-.7-7.2-2-10.8-1.3-3.6-3.1-5.7-5.4-8.1-2.3-2.4-4.9-4.3-7.9-5.6-3-1.3-6.2-2-9.6-2h-8.4ZM267.9 4.9h-25.8v22.8h21.6v2.9h-21.6v27.3h25.8v3h-32.4V2h32.4v2.9ZM278.4 60.9h2.9v-46l37.9 47V2h-3v47.7L278.4 1v59.9ZM69.3 136V77.1h6.5v56h23.4v2.9H69.3ZM177.8 77.1H198c2.6 0 5 .2 7.2.7 2.2.5 4.1 1.2 5.9 2.2 1.7 1 3.1 2.3 4.1 4 1 1.7 1.5 3.6 1.5 5.8 0 3.2-1 5.8-3 7.9-2 2.1-4.7 3.5-8 4.4 3.4.4 6.5 1.3 9.2 2.7 2.7 1.4 4.9 3.3 6.6 5.7 1.7 2.5 2.5 5.3 2.5 8.4 0 3.1-.6 5.1-1.8 7.3-1.2 2.2-2.8 4-4.9 5.4-2.1 1.4-4.4 2.5-7 3.2-2.6.8-5.4 1.1-8.3 1.1h-24.1V77l-.1.1Zm20.9 3h-14.3v21.1h14.3c4.1 0 7.1-1.1 9-3.3 1.9-2.2 2.9-4.2 2.9-7.7s-1-4.7-2.9-6.8c-1.9-2.2-4.9-3.2-9-3.2m2.4 23.8h-16.7v29h16.7c5.1 0 9-1.5 11.7-4.4 2.7-2.9 4.1-5 4.1-9.7 0-4.7-1.4-7.6-4.1-10.5-2.7-2.9-6.6-4.4-11.7-4.4ZM267.9 80.1h-25.8v21h21.6v2.9h-21.6v29.1h25.8v2.9h-32.4V77.1h32.4v3ZM312.1 78.7v4.4c-.2-.1-.4-.3-.7-.4-.3-.2-.9-.5-1.8-.9s-1.9-.8-2.9-1.2c-1-.3-2.2-.7-3.7-.9-1.5-.3-2.9-.4-4.4-.4-3.9 0-7.3.7-9.8 2.6-7.1 5.4-2.3 9.9-2 10.3.3.4.9.9 1.7 1.6.8.6 1.5 1.1 1.9 1.5.5.4 1.3.9 2.6 1.7 1.3.8 2.2 1.3 2.8 1.7.6.4 1.7 1 3.4 2 1.6 1 2.8 1.7 3.6 2.1.7.4 1.8 1.1 3.3 2 1.5.9 2.5 1.6 3.2 2.1.7.5 1.6 1.2 2.7 2.1 1.1.9 2 1.6 2.5 2.2.5.6 1.2 1.4 1.9 2.2.7.9 1.3 1.7 1.6 2.5.3.8.6 1.7.8 2.6.2 1 .4 1.9.4 3 0 2.2-.5 4.2-1.4 6-1 1.8-2.2 3.2-3.7 4.4-1.5 1.2-3.3 2.1-5.4 2.9-2 .8-4.1 1.3-6.2 1.7-2.1.3-4.2.5-6.3.5-2.1 0-4.2-.2-6.3-.5-2.1-.4-3.9-.8-5.3-1.3-1.5-.5-2.8-1-3.9-1.6-1.1-.5-2-1-2.5-1.3l-.9-.5v-4.6c.2.2.5.5.9.8.4.3 1.2.9 2.6 1.7 1.3.8 2.7 1.5 4.1 2.1 1.4.6 3.2 1.2 5.3 1.7 2.1.5 4.3.8 6.5.8 4.7 0 8.5-1.1 11.4-3.2 6.4-4.8 3.7-11.5 1.1-14.2-2.2-2.3-6-5.1-11.3-8.3-2-1.3-3.5-2.2-4.5-2.8-1-.6-2.3-1.4-3.9-2.4s-2.9-1.9-3.6-2.5c-.8-.6-1.7-1.4-2.7-2.4-1-1-1.8-1.9-2.2-2.7-.5-.8-.9-1.7-1.2-2.7-.3-1-.5-2-.5-3.1 0-2.1.6-4.1 1.8-5.8 1.2-1.7 2.7-3.1 4.6-4.1 1.9-1 4.1-1.8 6.4-2.4 2.3-.5 4.7-.8 7.2-.8s4.4.2 6.6.6c2.2.4 3.9.8 5 1.2l1.7.6-.5-.6ZM51.8 106H35.5v2.6h12.6v22.7c-4.3 2.6-9.7 3-16.1 3-6.4 0-6.5-.7-9.4-2.2-2.9-1.4-5.5-3.4-7.6-6-2.1-2.6-3.8-4.8-5.1-8.5-1.2-3.7-1.9-6.8-1.9-11 0-8.5 2.3-14.7 6.9-20.2 4.6-5.5 10.3-8.3 17-8.3 6.7 0 7.3.6 10.7 1.8 3.4 1.2 6.3 2.8 8.7 5V81c-5.6-3.2-12-4.9-19.4-4.9-7.4 0-8.3.8-12.1 2.4-3.8 1.6-7.2 3.7-10 6.4s-5 5.9-6.6 9.7C1.6 98.4.8 102.4.8 106.7s1.4 10.8 4.2 15.5c2.8 4.7 6.5 8.4 11.3 11 4.8 2.7 10 4 15.7 4 9.1 0 16.6-2.2 22.6-6.5V106h-2.8ZM166.6 106.6c0 4.3-.8 8.4-2.4 12.2-1.6 3.8-3.8 7.1-6.6 9.7-2.8 2.7-6.1 4.8-9.9 6.3-3.8 1.5-7.9 2.3-12.1 2.3-4.2 0-8.3-.8-12.1-2.3-3.8-1.5-7.1-3.6-9.9-6.3-2.8-2.7-5-5.9-6.6-9.7-1.6-3.8-2.4-7.9-2.4-12.2 0-4.3 1.4-10.8 4.2-15.5 2.8-4.7 6.5-8.4 11.3-11.1 4.8-2.7 10-4 15.7-4 5.7 0 8.3.8 12.1 2.4 3.8 1.6 7.1 3.7 9.9 6.4 2.8 2.7 5 5.9 6.6 9.7 1.6 3.8 2.4 7.8 2.4 12.1m-48.5 19.5c4.4 5.4 10.1 8.1 17.3 8.1 7.2 0 12.9-2.7 17.3-8.1 4.4-5.4 6.6-10.8 6.6-19.5s-2.2-14-6.6-19.4c-4.4-5.5-10.1-8.2-17.3-8.2-7.2 0-12.9 2.7-17.3 8.2-4.4 5.5-6.6 10.8-6.6 19.4 0 8.6 2.2 14.1 6.6 19.5ZM127.2 31.4c0 4.3-.8 8.4-2.4 12.2-1.6 3.8-3.8 7.1-6.6 9.7-2.8 2.7-6.1 4.8-9.9 6.3-3.8 1.5-7.9 2.3-12.1 2.3-4.2 0-8.3-.8-12.1-2.3-3.8-1.5-7.1-3.6-9.9-6.3-2.8-2.7-5-5.9-6.6-9.7-1.6-3.8-2.4-7.9-2.4-12.2 0-4.3 1.4-10.8 4.2-15.5 2.8-4.7 6.5-8.4 11.3-11.1 4.8-2.7 10-4 15.7-4 5.7 0 8.3.8 12.1 2.4 3.8 1.6 7.1 3.7 9.9 6.4 2.8 2.7 5 5.9 6.6 9.7 1.6 3.8 2.4 7.8 2.4 12.1M78.8 50.9c4.4 5.4 10.1 8.1 17.3 8.1 7.2 0 12.9-2.7 17.3-8.1 4.4-5.4 6.6-10.8 6.6-19.5s-2.2-14-6.6-19.4c-4.4-5.5-10.1-8.2-17.3-8.2-7.2 0-12.9 2.7-17.3 8.2-4.4 5.5-6.6 10.8-6.6 19.4 0 8.6 2.2 14.1 6.6 19.5ZM51.8 30.8H35.5v2.6h12.6v22.7c-4.3 2.6-9.7 3-16.1 3-6.4 0-6.5-.7-9.4-2.2-2.9-1.4-5.5-3.4-7.6-6-2.1-2.6-3.8-4.8-5.1-8.5-1.2-3.7-1.9-6.8-1.9-11 0-8.5 2.3-14.7 6.9-20.2 4.6-5.5 10.3-8.3 17-8.3 6.7 0 7.3.6 10.7 1.8 3.4 1.2 6.3 2.8 8.7 5V5.8C45.7 2.6 39.3.9 31.9.9c-7.4 0-8.3.8-12.1 2.4C16 4.9 12.6 7 9.8 9.7s-5 5.9-6.6 9.7C1.6 23.2.8 27.2.8 31.5S2.2 42.3 5 47c2.8 4.7 6.5 8.4 11.3 11 4.8 2.7 10 4 15.7 4 9.1 0 16.6-2.2 22.6-6.5V30.8h-2.8Z"/>
</svg>
