<svg xmlns="http://www.w3.org/2000/svg" width="358" height="54" fill="none" viewBox="0 0 358 54">
  <g clip-path="url(#a)">
    <path fill="#06F" d="M226.933 14.428c0-6.954-7.358-10.302-16.102-10.302-9.349 0-17.948 4.156-21.094 10.59a12.243 12.243 0 0 0-1.327 5.541 8.418 8.418 0 0 0 1.327 4.704c1.356 1.991 3.752 3.26 7.301 3.26 4.328 0 7.791-2.366 7.791-6.52 0 0 .058-1.155-1.298-1.155-1.097 0-1.385.779-1.357 1.154.174 3.261-1.76 5.858-5.223 5.858-3.866 0-5.454-3.29-5.454-6.781 0-7.157 5.397-11.918 11.024-13.996 2.626-1.01 5.396-1.471 8.224-1.443 6.377 0 11.571 2.453 11.571 9.004 0 5.454-4.588 10.128-10.099 10.532l.23-.75c1.126-4.01 2.511-8.426 4.762-11.658.115-.202.346-.52.606-.837l-.318-.375c-.49.289-.923.606-1.385.952-10.533 8.224-10.879 31.396-24.932 31.396-.491 0-.952-.028-1.443-.086-2.914-.49-4.473-2.453-4.473-5.166 0-.548.202-1.298.202-1.702a1.398 1.398 0 0 0-1.385-1.443h-.173c-1.241 0-1.76.981-1.789 2.424-.087 4.098 2.915 6.464 7.589 6.926.52.028 1.039.057 1.587.057 10.966 0 17.69-8.282 20.546-18.353a26.737 26.737 0 0 0 4.271-.894c5.108-1.53 10.821-4.934 10.821-10.937ZM331.399 16.823h-3.866l-.866 2.02-1.501 3.405h-1.789l-.548 1.155h1.876l-2.251 4.992c-1.616 3.492-4.127 6.954-5.57 6.954-.317 0-.519-.115-.519-.461 0-.318.087-.606.462-1.5a102.95 102.95 0 0 1 1.731-3.723c.808-1.645 2.078-4.185 2.078-5.425 0-1.241-.808-2.251-2.366-2.251-1.761 0-3.377 1.067-4.848 2.597l.952-2.309h-3.636l-2.943 6.753c-1.184 2.366-3.608 6.348-5.108 6.348-.318 0-.462-.202-.462-.52.029-.288.087-.547.231-.836.115-.289 1.905-4.444 1.905-4.444l3.203-7.358h-3.925l-3.116 7.156c-.953 2.222-3.405 5.973-4.993 5.973a.51.51 0 0 1-.548-.461v-.116c0-.375.289-1.096.52-1.616l1.644-3.607 3.377-7.358h-3.896l-.779 1.673c-.577 1.126-1.53 2.453-3.088 2.453-.75 0-1.096-.288-1.241-.577-.23-2.482-1.789-3.78-4.126-3.78-3.203 0-5.512 1.904-7.012 4.213a21.365 21.365 0 0 0-2.309 5.108c-1.385 2.28-2.828 4.04-3.982 4.04-.289 0-.491-.174-.491-.549 0-.375.376-1.24.52-1.587l2.539-5.396c.722-1.674 1.183-2.77 1.183-3.867 0-1.154-.808-1.991-2.135-1.991-1.847 0-3.838 1.068-5.396 2.8.057-.29.057-.55.057-.838 0-1.298-.634-1.962-1.962-1.962-1.673 0-3.405 1.01-4.992 2.8l1.039-2.511h-3.55l-3.001 6.752c-1.414 3.174-3.693 6.349-4.992 6.349-.288 0-.49-.174-.49-.549 0-.606.663-2.135.923-2.741l3.982-8.946c.289-.663-1.616-1.096-4.011-1.096-2.482 0-5.021 1.212-6.868 2.799-1.327 1.096-2.279 1.645-2.77 1.645-.26 0-.346-.116-.346-.289 0-.548 1.327-2.078 1.327-3.29 0-.548-.288-.894-1.039-.894-1.414 0-3.087 1.356-4.299 2.77l1.039-2.482h-3.463l-3.001 6.753c-1.414 3.174-3.752 6.493-5.05 6.493-.289 0-.491-.173-.491-.549 0-.606.635-2.077 1.01-2.856l3.925-9.004c.288-.663-1.616-1.096-4.011-1.096-3.579 0-7.041 2.424-8.888 4.877-2.02 2.654-3.405 5.511-3.434 7.82-.029 1.875.923 3.03 2.857 3.03 2.164 0 3.895-1.703 4.876-3.002-.057.26-.086.52-.115.78 0 1.298.519 2.222 2.078 2.222 1.385 0 3.203-1.155 4.703-3.002l-1.183 2.742h3.751l3.694-8.397c1.212-2.742 2.597-4.156 3.001-4.156.116 0 .202.058.202.173 0 .289-.577 1.068-.577 1.76 0 .722.375 1.242 1.414 1.242.808 0 1.703-.376 2.511-.895-1.905 2.568-3.175 5.28-3.175 7.503-.028 1.875.924 3.03 2.857 3.03 2.02 0 3.925-1.934 4.964-3.203-.029.288-.058.577-.058.894 0 1.24.721 2.309 2.164 2.309 1.616 0 2.886-1.01 4.502-2.944l-1.183 2.713h3.866l3.55-7.994c1.529-3.462 3.636-5.338 4.675-5.338a.482.482 0 0 1 .519.433v.086c-.029.375-.173.78-.317 1.126l-5.079 11.744h3.953l3.607-8.166c1.53-3.492 3.261-5.223 4.531-5.223.375 0 .548.202.548.606-.029.462-.173.895-.346 1.299l-3.463 7.387a6.787 6.787 0 0 0-.577 2.25c0 1.126.606 2.136 2.337 2.136 2.251 0 3.953-1.703 5.887-4.242v.548c.173 2.02 1.298 3.78 4.271 3.78 3.549 0 6.406-2.452 8.137-6.319.635-1.385 1.097-2.828 1.241-4.328.375.201.837.288 1.241.26.577 0 1.154-.116 1.674-.434l-.606 1.328a118.61 118.61 0 0 0-2.078 4.501 7.352 7.352 0 0 0-.664 2.598c0 1.385.779 2.366 2.338 2.366 1.587 0 3.722-1.472 5.28-3.579h.029c-.086.404-.173.866-.173 1.328 0 1.154.346 2.25 1.962 2.25 1.876 0 3.319-1.355 4.733-3.058l-1.183 2.712h3.895l3.117-7.07c1.76-3.982 3.549-6.406 5.165-6.406.289 0 .52.202.549.491v.087c0 .663-.953 2.51-1.847 4.328a133.755 133.755 0 0 0-1.847 3.953 7.66 7.66 0 0 0-.664 2.655c0 1.212.664 2.164 2.193 2.164 2.251 0 4.531-2.193 5.743-3.837-.289.808-.404 1.616-.462 2.452 0 2.251 1.356 3.377 3.261 3.377a5.892 5.892 0 0 0 3.492-1.155c1.471-1.039 2.654-2.568 3.664-3.982l-.663-.635c-.924 1.328-1.963 2.569-3.03 3.348-.577.49-1.241.75-1.991.779-.808 0-1.328-.433-1.328-1.443 0-1.039.491-2.424 1.212-4.27.029-.03 1.097-2.425 2.078-4.704.837-1.934 1.673-3.78 1.847-4.185h2.539l.519-1.154h-2.51l2.337-5.512ZM221.715 35.378c-.548 0-.923-.202-.923-.894.029-1.905 1.616-5.281 3.578-7.965 1.385-1.875 3.174-3.26 5.108-3.26l-2.453 5.453c-1.847 4.127-3.838 6.666-5.31 6.666Zm24.038 0c-.549 0-.924-.202-.953-.894.029-1.905 1.616-5.281 3.579-7.965 1.385-1.875 3.174-3.26 5.107-3.26l-2.453 5.453c-1.875 4.242-3.751 6.666-5.28 6.666Zm42.708-10.648c-.087 2.078-1.934 7.128-4.069 10.158-.866 1.212-1.616 1.587-2.251 1.587-.895 0-1.154-.75-1.039-1.847.202-1.905 1.76-6.32 3.953-9.378 1.01-1.386 1.674-1.963 2.453-1.963.751 0 .981.664.953 1.443ZM348.476 22.277l3.521-8.195h-4.184l-3.55 8.195h-8.887l-1.501 3.405h8.917l-3.55 8.196h4.185l3.549-8.196h8.917l1.471-3.405h-8.888Z"/>
    <path fill="#0064FD" d="M237.519 12.437c.317.404.837.837 1.731.837.837 0 1.183-.346 1.183-.75 0-.49-.432-.693-1.356-.924-1.385-.317-2.077-.836-2.077-1.904s.981-1.76 2.308-1.76c1.068 0 1.876.461 2.28.952l-.722.837c-.346-.433-.981-.722-1.616-.722-.606 0-1.01.202-1.01.635 0 .462.404.664 1.385.895 1.184.288 2.049.692 2.049 1.904 0 1.039-.779 1.876-2.424 1.876-1.269 0-2.106-.577-2.539-1.068l.808-.808ZM245.221 9.205h-1.76V8.138h4.79v1.067h-1.76v5.05h-1.27v-5.05ZM254.168 14.255l-1.731-2.684h-.808v2.684h-1.27V8.138h2.771c1.154 0 1.933.634 1.933 1.702 0 .866-.548 1.443-1.299 1.645l1.818 2.77h-1.414Zm-2.539-3.636h1.356c.577 0 .837-.317.837-.75s-.26-.75-.837-.75h-1.356v1.5ZM261.64 14.255h-4.242V8.138h4.242v1.067h-2.972v1.299h2.54v1.068h-2.54v1.616h2.972v1.067ZM267.528 12.841h-2.511l-.519 1.414h-1.154l2.366-6.146h1.27l2.366 6.146h-1.299l-.519-1.414Zm-2.164-.952h1.818l-.924-2.424-.894 2.424ZM276.305 10.186l-1.645 4.07h-.491l-1.702-4.04v4.04h-1.155V8.137h1.299l1.818 4.155 1.731-4.155h1.299v6.146h-1.154v-4.098ZM281.262 14.255h-1.27V8.138h1.27v6.117ZM284.959 10.129v4.126h-1.154V8.138h1.067l3.03 4.097V8.138h1.155v6.146h-1.068l-3.03-4.155ZM291.336 11.196c0-1.904 1.298-3.203 3.088-3.203.981 0 1.875.433 2.395 1.126l-.837.808a1.788 1.788 0 0 0-1.558-.837c-1.039 0-1.79.808-1.79 2.078 0 1.327.693 2.077 1.732 2.077.75 0 1.356-.346 1.356-.75v-.808h-1.587v-1.01h2.799v3.578h-1.125v-.462c-.231.26-.722.578-1.616.578-1.703 0-2.857-1.27-2.857-3.175ZM308.852 11.196c0 1.876-1.327 3.203-3.059 3.203-1.731 0-3.059-1.327-3.059-3.203 0-1.875 1.328-3.203 3.059-3.203 1.732 0 3.059 1.328 3.059 3.203Zm-1.299 0c0-1.298-.779-2.077-1.76-2.077-1.039 0-1.76.779-1.76 2.077 0 1.299.75 2.05 1.76 2.05s1.76-.78 1.76-2.05ZM312.256 10.129v4.126h-1.154V8.138h1.067l3.03 4.097V8.138h1.154v6.146h-1.067l-3.03-4.155Z"/>
    <path fill="#06F" d="M162.639 0h-1.53v53.24h1.53V0ZM41.07 26.663c0 5.685-1.99 10.533-6.001 14.544-4.011 4.011-8.83 6.002-14.486 6.002-5.656 0-10.504-1.99-14.515-6.002-4.04-4.01-6.06-8.859-6.06-14.544 0-5.655 2.02-10.474 6.03-14.486 4.012-4.01 8.86-6.002 14.516-6.002 5.656 0 10.475 1.991 14.486 6.003 4.01 4.01 6.03 8.83 6.03 14.485Zm-1.24.03c-1.616-3.55-4.098-6.436-7.474-8.658-3.55-2.395-7.503-3.607-11.831-3.607-4.329 0-8.282 1.212-11.86 3.607-3.319 2.222-5.8 5.108-7.416 8.657 1.616 3.55 4.097 6.464 7.416 8.715 3.578 2.366 7.531 3.55 11.889 3.55 4.357 0 8.282-1.184 11.831-3.55 3.347-2.25 5.829-5.165 7.445-8.715Zm-8.368-.03c0 3.002-1.068 5.57-3.203 7.705-2.136 2.136-4.704 3.203-7.705 3.203-3.001 0-5.57-1.067-7.705-3.203-2.135-2.135-3.203-4.703-3.203-7.705 0-3 1.068-5.569 3.203-7.675 2.135-2.107 4.704-3.175 7.705-3.175 3 0 5.57 1.068 7.705 3.175 2.135 2.106 3.203 4.674 3.203 7.675ZM44.703 26.692c0-10.59 8.744-19.334 20.142-19.334 10.33 0 15.64 7.417 15.64 7.417l-5.31 5.31s-3.722-5.31-10.33-5.31a11.884 11.884 0 0 0-11.918 11.917c0 6.608 5.31 11.918 11.918 11.918 6.897 0 10.59-5.31 10.59-5.31l5.31 5.31s-5.31 7.416-15.9 7.416c-11.37 0-20.142-8.743-20.142-19.334ZM83.727 8.138h15.64c7.416 0 11.918 4.501 11.918 9.81 0 5.83-5.021 7.677-5.021 7.677s6.896 1.846 6.896 9.003c0 5.829-4.761 10.59-12.725 10.59H83.727V8.138Zm15.12 14.312c2.655 0 4.242-1.587 4.242-3.722s-1.587-3.723-4.242-3.723h-7.156v7.417h7.156v.028Zm1.04 15.9c3.174 0 5.02-1.846 5.02-4.501 0-2.655-1.846-4.502-5.02-4.502h-8.225v9.003h8.224ZM114.109 40.197l5.31-5.31s3.174 3.983 8.744 3.983c4.242 0 6.088-1.847 6.088-4.242 0-6.349-18.555-3.434-18.555-16.42 0-5.828 5.022-10.878 13.505-10.878 8.225 0 12.466 5.02 12.466 5.02l-5.309 5.31s-2.655-3.174-6.897-3.174c-3.982 0-5.569 1.587-5.569 3.723 0 6.348 18.555 3.433 18.555 16.419 0 6.089-5.31 11.398-14.054 11.398-9.522 0-14.284-5.829-14.284-5.829Z"/>
  </g>
  <defs>
    <clipPath id="a">
      <path fill="#fff" d="M0 0h357.361v53.24H0z"/>
    </clipPath>
  </defs>
</svg>
