<svg width="75" height="34" viewBox="0 0 75 34" fill="none" xmlns="http://www.w3.org/2000/svg">
<g clip-path="url(#clip0_732_136)">
<path d="M31.0059 9.19189H32.69C34.674 9.19189 35.8736 10.5069 35.8736 12.2371C35.8736 13.9673 34.5355 15.2823 32.713 15.2823H31.0059V9.19189ZM31.9056 10.0224V14.4287H32.6207C34.028 14.4287 34.9508 13.4829 34.9508 12.2371C34.9508 10.9683 34.1203 10.0224 32.5746 10.0224H31.9056Z" fill="white"/>
<path d="M37.0041 9.26074C37.3502 9.26074 37.6039 9.51451 37.6039 9.86056C37.6039 10.2066 37.3502 10.4604 37.0041 10.4604C36.635 10.4604 36.4043 10.2066 36.4043 9.86056C36.4043 9.51451 36.6581 9.26074 37.0041 9.26074ZM36.5658 11.1063H37.4655V15.282H36.5658V11.1063Z" fill="white"/>
<path d="M38.1113 13.2062C38.1113 11.9835 39.0803 11.0376 40.2799 11.0376C41.2027 11.0376 41.9409 11.5682 42.2639 12.3064L41.4565 12.6525C41.2488 12.168 40.8336 11.8681 40.2799 11.8681C39.5417 11.8681 38.988 12.4679 38.988 13.2062C38.988 13.9444 39.5647 14.5442 40.303 14.5442C40.8797 14.5442 41.295 14.1982 41.4795 13.7368L42.287 14.0828C41.964 14.8441 41.2719 15.3978 40.2799 15.3978C39.0341 15.3747 38.1113 14.4058 38.1113 13.2062Z" fill="white"/>
<path d="M44.432 13.4367L43.7399 14.198V15.2823H42.8633V9.19189H43.7399V13.183L45.6086 11.1067H46.6929L45.078 12.8831L46.739 15.2593H45.747L44.432 13.4367Z" fill="white"/>
<path d="M49.0234 12.237C49.0234 10.4606 50.4076 9.12256 52.1379 9.12256C53.2914 9.12256 54.2834 9.74544 54.837 10.6452L54.0527 11.1296C53.6835 10.4375 53.0145 9.97614 52.1609 9.97614C50.8921 9.97614 49.9462 10.9681 49.9462 12.237C49.9462 13.4597 50.8921 14.4748 52.1609 14.4748C53.1068 14.4748 53.7758 13.9672 54.1219 13.229L54.9293 13.6673C54.3987 14.6824 53.4067 15.3745 52.1609 15.3745C50.3384 15.3745 49.0234 13.9672 49.0234 12.237Z" fill="white"/>
<path d="M55.5059 9.19189H56.4056V15.2823H55.5059V9.19189Z" fill="white"/>
<path d="M57.0527 13.2062C57.0527 11.8681 58.0447 11.0376 59.129 11.0376C59.6827 11.0376 60.2133 11.2683 60.5132 11.6605V11.1299H61.4129V15.2824H60.5132V14.7057C60.1902 15.121 59.6827 15.3747 59.129 15.3747C58.0678 15.3747 57.0527 14.5211 57.0527 13.2062ZM60.5593 13.1831C60.5593 12.4449 60.0057 11.822 59.2444 11.822C58.5061 11.822 57.9294 12.4218 57.9294 13.1831C57.9294 13.9444 58.5061 14.5442 59.2444 14.5442C60.0057 14.5442 60.5593 13.9444 60.5593 13.1831Z" fill="white"/>
<path d="M62.2188 11.1064H63.1185V11.7755C63.3492 11.3602 63.7414 11.1064 64.3412 11.1064H64.7334V11.96H64.2027C63.4414 11.96 63.1415 12.3522 63.1415 13.2058V15.2821H62.2418V11.1064H62.2188Z" fill="white"/>
<path d="M66.9027 13.4367L66.2106 14.198V15.2823H65.334V9.19189H66.2106V13.183L68.0793 11.1067H69.1636L67.5487 12.8831L69.2097 15.2823H68.2177L66.9027 13.4367Z" fill="white"/>
<path d="M31.0059 17.7739H33.0129C34.3048 17.7739 35.2046 18.6967 35.2046 19.8963C35.2046 21.096 34.3048 22.0188 32.9899 22.0188H31.9056V23.8413H31.0059V17.7739ZM31.9056 18.6044V21.1883H32.9207C33.7512 21.1883 34.2818 20.6115 34.2818 19.8963C34.2818 19.1581 33.7512 18.6044 32.9207 18.6044H31.9056Z" fill="white"/>
<path d="M35.7129 19.6885H36.6126V20.3575C36.8433 19.9422 37.2355 19.6885 37.8353 19.6885H38.2275V20.5421H37.6969C36.9356 20.5421 36.6357 20.9342 36.6357 21.7878V23.8641H35.736V19.6885H35.7129Z" fill="white"/>
<path d="M38.457 21.7877C38.457 20.565 39.426 19.6191 40.6256 19.6191C41.8252 19.6191 42.7942 20.565 42.7942 21.7877C42.7942 22.9873 41.8252 23.9563 40.6256 23.9563C39.426 23.9563 38.457 22.9873 38.457 21.7877ZM41.8944 21.7877C41.8944 21.0495 41.3177 20.4497 40.6025 20.4497C39.8874 20.4497 39.3337 21.0495 39.3337 21.7877C39.3337 22.5259 39.8874 23.1258 40.6025 23.1258C41.3177 23.1258 41.8944 22.5029 41.8944 21.7877Z" fill="white"/>
<path d="M43.2793 21.7881C43.2793 20.45 44.2713 19.6195 45.3556 19.6195C45.9093 19.6195 46.4399 19.8502 46.7398 20.2424V17.7739H47.6164V23.8644H46.7398V23.2876C46.4168 23.7029 45.9093 23.9566 45.3556 23.9566C44.2944 23.9566 43.2793 23.1031 43.2793 21.7881ZM46.7859 21.765C46.7859 21.0268 46.2322 20.4039 45.4709 20.4039C44.7327 20.4039 44.1559 21.0037 44.1559 21.765C44.1559 22.5263 44.7327 23.1261 45.4709 23.1261C46.2322 23.1261 46.7859 22.5263 46.7859 21.765Z" fill="white"/>
<path d="M48.3789 22.1108V19.6885H49.2786V22.0416C49.2786 22.7337 49.6016 23.149 50.2937 23.149C50.8935 23.149 51.3549 22.6876 51.3549 21.9724V19.6885H52.2546V23.8641H51.378V23.3335C51.1011 23.7257 50.6397 23.9564 50.1091 23.9564C49.0018 23.9564 48.3789 23.2643 48.3789 22.1108Z" fill="white"/>
<path d="M52.877 21.7877C52.877 20.565 53.8459 19.6191 55.0455 19.6191C55.9683 19.6191 56.7065 20.1497 57.0295 20.888L56.2221 21.234C56.0144 20.7496 55.5992 20.4497 55.0455 20.4497C54.3073 20.4497 53.7536 21.0495 53.7536 21.7877C53.7536 22.5259 54.3304 23.1258 55.0686 23.1258C55.6453 23.1258 56.0606 22.7797 56.2451 22.3183L57.0526 22.6644C56.7296 23.4257 56.0375 23.9793 55.0455 23.9793C53.8228 23.9563 52.877 22.9873 52.877 21.7877Z" fill="white"/>
<path d="M57.3512 19.6884H58.0664V18.6964L58.9661 18.2119V19.6884H59.8427V20.4958H58.9661V22.1569C58.9661 22.9182 59.0814 23.0335 59.8427 23.0335V23.864H59.7043C58.4355 23.864 58.0433 23.4718 58.0433 22.1569V20.4958H57.3281V19.6884H57.3512Z" fill="white"/>
<path d="M61.0881 17.8428C61.4341 17.8428 61.6879 18.0965 61.6879 18.4426C61.6879 18.7886 61.4341 19.0424 61.0881 19.0424C60.719 19.0424 60.4883 18.7886 60.4883 18.4426C60.4883 18.0965 60.742 17.8428 61.0881 17.8428ZM60.6267 19.6884H61.5264V23.864H60.6267V19.6884Z" fill="white"/>
<path d="M62.1719 21.7877C62.1719 20.565 63.1408 19.6191 64.3404 19.6191C65.5401 19.6191 66.509 20.565 66.509 21.7877C66.509 22.9873 65.5401 23.9563 64.3404 23.9563C63.1408 23.9563 62.1719 22.9873 62.1719 21.7877ZM65.6093 21.7877C65.6093 21.0495 65.0325 20.4497 64.3174 20.4497C63.6022 20.4497 63.0485 21.0495 63.0485 21.7877C63.0485 22.5259 63.6022 23.1258 64.3174 23.1258C65.0325 23.1258 65.6093 22.5029 65.6093 21.7877Z" fill="white"/>
<path d="M67.0641 19.6885H67.9407V20.2191C68.2176 19.8269 68.679 19.5962 69.2326 19.5962C70.2939 19.5962 70.9167 20.2883 70.9167 21.4187V23.8641H70.017V21.511C70.017 20.8189 69.671 20.4036 69.002 20.4036C68.4021 20.4036 67.9407 20.865 67.9407 21.5802V23.8641H67.041V19.6885H67.0641Z" fill="white"/>
<path d="M71.4238 23.0104L72.2313 22.5721C72.462 22.9643 72.8311 23.1719 73.3386 23.1719C73.8462 23.1719 74.123 22.9181 74.123 22.6413C74.123 22.2952 73.6155 22.226 73.0849 22.1107C72.3697 21.9723 71.6315 21.7416 71.6315 20.888C71.6315 20.219 72.2543 19.6191 73.2463 19.6191C74.0538 19.6191 74.6075 19.919 74.9535 20.4266L74.1922 20.8418C73.9846 20.5419 73.6847 20.3574 73.2463 20.3574C72.7619 20.3574 72.5312 20.5881 72.5312 20.8649C72.5312 21.1648 72.9003 21.234 73.5232 21.3724C74.2153 21.5339 75.0227 21.7646 75.0227 22.6413C75.0227 23.2642 74.469 23.9793 73.3155 23.9793C72.3697 23.9563 71.7699 23.6333 71.4238 23.0104Z" fill="white"/>
<path d="M20.6014 17.4275C18.0637 17.4275 16.6333 18.6733 15.872 19.2731C15.2722 19.7576 14.4879 20.3343 13.542 20.3343C11.6041 20.3343 10.0354 18.7655 10.0354 16.8277C10.0354 14.8898 11.6041 13.3211 13.542 13.3211C14.857 13.3211 16.0335 14.0362 16.6564 15.1897L19.2633 13.7363C18.7327 12.7443 17.9483 11.9138 17.0025 11.314C15.9643 10.668 14.7878 10.322 13.542 10.322C13.3574 10.322 13.1498 10.322 12.9652 10.3451V0.286621L10.0123 1.94765V4.30077C8.99723 3.63175 7.7976 3.26263 6.48262 3.26263C2.9068 3.26263 0 6.16943 0 9.74525C0 13.3211 2.9068 16.2279 6.48262 16.2279C6.69025 16.2279 6.89788 16.2279 7.10551 16.2048C7.08244 16.4124 7.08244 16.597 7.08244 16.8046C7.08244 20.3804 9.98923 23.2872 13.5651 23.2872C13.7727 23.2872 13.9572 23.2872 14.1649 23.2642C14.1649 23.3103 14.1418 33.3226 14.1418 33.3226L17.1178 31.6616V29.3546C18.1329 30.0006 19.3325 30.3697 20.6014 30.3697C24.1772 30.3697 27.084 27.4629 27.084 23.8871C27.084 20.3343 24.1772 17.4275 20.6014 17.4275ZM6.48262 13.2519C4.54476 13.2519 2.97601 11.6831 2.97601 9.74525C2.97601 7.80738 4.54476 6.23864 6.48262 6.23864C8.42049 6.23864 9.98923 7.80738 9.98923 9.74525C9.98923 11.6831 8.42049 13.2519 6.48262 13.2519ZM20.6014 27.4167C18.7788 27.4167 17.1178 25.8941 17.1178 23.9563C17.1178 21.9723 18.8019 20.4035 20.6014 20.4035C22.5392 20.4035 24.108 21.9723 24.108 23.9101C24.108 25.848 22.5392 27.4167 20.6014 27.4167Z" fill="white"/>
</g>
<defs>
<clipPath id="clip0_732_136">
<rect width="75" height="33.036" fill="white" transform="translate(0 0.286621)"/>
</clipPath>
</defs>
</svg>
