<svg width="87" height="60" viewBox="0 0 87 60" fill="none" xmlns="http://www.w3.org/2000/svg">
<path d="M42.7506 37.8039L60.6436 31.094L21.1299 28.8574L42.7506 37.8039Z" fill="white"/>
<path d="M43.5 37.5L62 31H67V52L17 48.5L24.5 31L43.5 37.5Z" fill="white"/>
<path d="M2.01213 7.65333V6.99427H8.50857C9.76392 6.99427 10.7604 7.16688 11.4979 7.5121C12.2354 7.85733 12.7611 8.31239 13.0749 8.8773C13.4044 9.44221 13.5692 10.0699 13.5692 10.7603V11.3958C13.5692 12.2118 13.3103 12.918 12.7925 13.5143C12.2903 14.0949 11.5528 14.5107 10.5799 14.7618C11.7725 14.9658 12.6826 15.3894 13.3103 16.0328C13.9537 16.6762 14.2753 17.4843 14.2753 18.4572V19.1163C14.2753 19.8224 14.1106 20.4736 13.781 21.0699C13.4515 21.6505 12.9023 22.1213 12.1334 22.4822C11.3802 22.8274 10.3681 23 9.09702 23H2.01213V22.3409L3.30671 22.1762C3.55778 22.1448 3.70685 22.082 3.75393 21.9879C3.801 21.878 3.82454 21.5563 3.82454 21.0228V8.97145C3.82454 8.43793 3.801 8.12409 3.75393 8.02994C3.70685 7.92009 3.55778 7.84948 3.30671 7.8181L2.01213 7.65333ZM8.50857 7.8181H6.64908V14.4087H8.50857C9.18332 14.4087 9.69331 14.1812 10.0385 13.7261C10.3838 13.2553 10.5564 12.5178 10.5564 11.5135V10.7603C10.5564 9.74035 10.3838 8.99499 10.0385 8.52423C9.69331 8.05347 9.18332 7.8181 8.50857 7.8181ZM9.09702 15.2325H6.64908V22.1762H9.09702C9.80315 22.1762 10.3367 21.9408 10.6976 21.47C11.0742 20.9836 11.2625 20.199 11.2625 19.1163V18.3395C11.2625 16.2682 10.5407 15.2325 9.09702 15.2325ZM19.9058 22.3409V23H15.363V22.3409L16.6576 22.1762C16.8302 22.1448 16.9558 22.1134 17.0342 22.082C17.1127 22.0349 17.1833 21.933 17.2461 21.776C17.3088 21.6191 17.3951 21.368 17.505 21.0228L22.0007 6.99427H24.025L28.5442 21.0228C28.6541 21.368 28.7404 21.6191 28.8031 21.776C28.8659 21.933 28.9365 22.0349 29.015 22.082C29.1091 22.1134 29.2347 22.1448 29.3916 22.1762L30.6862 22.3409V23H24.1897V22.3409L25.4843 22.1762C25.7354 22.1448 25.8688 22.082 25.8845 21.9879C25.9158 21.878 25.8452 21.5563 25.6726 21.0228L24.7782 18.1041H19.3409L18.423 21.0228C18.266 21.5563 18.1954 21.878 18.2111 21.9879C18.2268 22.082 18.3602 22.1448 18.6113 22.1762L19.9058 22.3409ZM19.6234 17.2803H24.5193L22.0949 9.46574L19.6234 17.2803ZM42.0708 18.9515H42.7298V23H31.5494V22.3409L32.8439 22.1762C33.095 22.1448 33.2441 22.082 33.2912 21.9879C33.3382 21.878 33.3618 21.5563 33.3618 21.0228V8.97145C33.3618 8.43793 33.3382 8.12409 33.2912 8.02994C33.2441 7.92009 33.095 7.84948 32.8439 7.8181L31.5494 7.65333V6.99427H37.9987V7.65333L36.7041 7.8181C36.4531 7.84948 36.304 7.92009 36.2569 8.02994C36.2098 8.12409 36.1863 8.43793 36.1863 8.97145V22.1762H40.0465C40.4231 22.1762 40.6899 22.1683 40.8468 22.1526C41.0037 22.1213 41.1057 22.0663 41.1528 21.9879C41.2156 21.8937 41.2705 21.7525 41.3176 21.5642L42.0708 18.9515ZM54.5982 18.9515H55.2573V23H44.0768V22.3409L45.3714 22.1762C45.6225 22.1448 45.7715 22.082 45.8186 21.9879C45.8657 21.878 45.8892 21.5563 45.8892 21.0228V8.97145C45.8892 8.43793 45.8657 8.12409 45.8186 8.02994C45.7715 7.92009 45.6225 7.84948 45.3714 7.8181L44.0768 7.65333V6.99427H50.5262V7.65333L49.2316 7.8181C48.9805 7.84948 48.8315 7.92009 48.7844 8.02994C48.7373 8.12409 48.7138 8.43793 48.7138 8.97145V22.1762H52.574C52.9506 22.1762 53.2173 22.1683 53.3743 22.1526C53.5312 22.1213 53.6332 22.0663 53.6802 21.9879C53.743 21.8937 53.7979 21.7525 53.845 21.5642L54.5982 18.9515ZM69.9031 14.2439V15.7268C69.9031 18.1434 69.3618 20.0028 68.279 21.3053C67.212 22.592 65.6271 23.2354 63.5244 23.2354C61.4217 23.2354 59.829 22.592 58.7462 21.3053C57.6792 20.0028 57.1456 18.1434 57.1456 15.7268V14.2439C57.1456 11.8274 57.6792 9.97573 58.7462 8.689C59.829 7.40226 61.4217 6.75889 63.5244 6.75889C65.6271 6.75889 67.212 7.40226 68.279 8.689C69.3618 9.97573 69.9031 11.8274 69.9031 14.2439ZM66.8903 13.067C66.8903 11.6861 66.7726 10.6034 66.5372 9.81881C66.3019 9.01853 65.9331 8.44577 65.431 8.10055C64.9445 7.75533 64.309 7.58272 63.5244 7.58272C62.7555 7.58272 62.12 7.75533 61.6178 8.10055C61.1157 8.44577 60.7469 9.01853 60.5116 9.81881C60.2762 10.6034 60.1585 11.6861 60.1585 13.067V16.9037C60.1585 18.2689 60.2762 19.3516 60.5116 20.1519C60.7469 20.9522 61.1157 21.5328 61.6178 21.8937C62.12 22.2389 62.7555 22.4116 63.5244 22.4116C64.309 22.4116 64.9445 22.2389 65.431 21.8937C65.9331 21.5328 66.3019 20.9522 66.5372 20.1519C66.7726 19.3516 66.8903 18.2689 66.8903 16.9037V13.067ZM71.7351 6.99427H84.6809V11.0428H84.0218L83.2686 8.43008C83.2215 8.22609 83.1666 8.08486 83.1038 8.0064C83.0568 7.91225 82.9548 7.85733 82.7978 7.84163C82.6409 7.82594 82.3742 7.8181 81.9975 7.8181H79.6202V21.0228C79.6202 21.5563 79.6438 21.878 79.6908 21.9879C79.7379 22.082 79.887 22.1448 80.1381 22.1762L81.4326 22.3409V23H74.9833V22.3409L76.2779 22.1762C76.5289 22.1448 76.678 22.082 76.7251 21.9879C76.7721 21.878 76.7957 21.5563 76.7957 21.0228V7.8181H74.4184C74.0575 7.8181 73.7907 7.82594 73.6181 7.84163C73.4612 7.85733 73.3592 7.91225 73.3121 8.0064C73.265 8.08486 73.2101 8.22609 73.1473 8.43008L72.3941 11.0428H71.7351V6.99427Z" fill="#9A865B"/>
<path d="M82.3333 23L73 25.6923L85 30L82.3333 23Z" fill="white"/>
<path d="M14 26.8L1.55556 22L0 30L14 26.8Z" fill="white"/>
<path d="M1 21L38.1269 35.3297C41.582 36.6632 45.4098 36.6632 48.8649 35.3297L85.9918 21" stroke="#9A865B" stroke-width="1.49108" stroke-linecap="round"/>
<path d="M1 21L37.6849 36.5371C41.4018 38.1114 45.5982 38.1114 49.3151 36.5371L86 21" stroke="#9A865B" stroke-width="1.49108" stroke-linecap="round"/>
<mask id="mask0_41_216" style="mask-type:alpha" maskUnits="userSpaceOnUse" x="1" y="31" width="84" height="25">
<path d="M1.45125 32.8702V31.9252H10.7663C12.5663 31.9252 13.995 32.1727 15.0525 32.6677C16.11 33.1627 16.8638 33.8152 17.3138 34.6252C17.7863 35.4352 18.0225 36.3352 18.0225 37.3252V38.2365C18.0225 39.4065 17.6513 40.419 16.9088 41.274C16.1888 42.1065 15.1313 42.7027 13.7363 43.0627C15.4463 43.3552 16.7513 43.9627 17.6513 44.8852C18.5738 45.8077 19.035 46.9665 19.035 48.3615V49.3065C19.035 50.319 18.7988 51.2527 18.3263 52.1077C17.8538 52.9402 17.0663 53.6152 15.9638 54.1327C14.8838 54.6277 13.4325 54.8752 11.61 54.8752H1.45125V53.9302L3.3075 53.694C3.6675 53.649 3.88125 53.559 3.94875 53.424C4.01625 53.2665 4.05 52.8052 4.05 52.0402V34.7602C4.05 33.9952 4.01625 33.5452 3.94875 33.4102C3.88125 33.2527 3.6675 33.1515 3.3075 33.1065L1.45125 32.8702ZM10.7663 33.1065H8.1V42.5565H10.7663C11.7338 42.5565 12.465 42.2302 12.96 41.5777C13.455 40.9027 13.7025 39.8452 13.7025 38.4052V37.3252C13.7025 35.8627 13.455 34.794 12.96 34.119C12.465 33.444 11.7338 33.1065 10.7663 33.1065ZM11.61 43.7377H8.1V53.694H11.61C12.6225 53.694 13.3875 53.3565 13.905 52.6815C14.445 51.984 14.715 50.859 14.715 49.3065V48.1927C14.715 45.2227 13.68 43.7377 11.61 43.7377ZM27.1084 53.9302V54.8752H20.5946V53.9302L22.4509 53.694C22.6984 53.649 22.8784 53.604 22.9909 53.559C23.1034 53.4915 23.2046 53.3452 23.2946 53.1202C23.3846 52.8952 23.5084 52.5352 23.6659 52.0402L30.1121 31.9252H33.0146L39.4946 52.0402C39.6521 52.5352 39.7759 52.8952 39.8659 53.1202C39.9559 53.3452 40.0571 53.4915 40.1696 53.559C40.3046 53.604 40.4846 53.649 40.7096 53.694L42.5659 53.9302V54.8752H33.2509V53.9302L35.1071 53.694C35.4671 53.649 35.6584 53.559 35.6809 53.424C35.7259 53.2665 35.6246 52.8052 35.3771 52.0402L34.0946 47.8552H26.2984L24.9821 52.0402C24.7571 52.8052 24.6559 53.2665 24.6784 53.424C24.7009 53.559 24.8921 53.649 25.2521 53.694L27.1084 53.9302ZM26.7034 46.674H33.7234L30.2471 35.469L26.7034 46.674ZM51.6335 54.0315C52.9835 54.0315 54.0973 53.7165 54.9748 53.0865C55.8748 52.434 56.3248 51.4215 56.3248 50.049C56.3248 49.0365 56.021 48.1927 55.4135 47.5177C54.8285 46.8427 53.771 46.2802 52.241 45.8302L49.1023 44.8852C47.5273 44.4127 46.3123 43.6027 45.4573 42.4552C44.6248 41.2852 44.2085 39.834 44.2085 38.1015C44.2085 36.954 44.4673 35.8852 44.9848 34.8952C45.5248 33.9052 46.3348 33.1065 47.4148 32.499C48.5173 31.8915 49.901 31.5877 51.566 31.5877C53.3885 31.5877 54.8623 31.9252 55.9873 32.6002C57.1123 33.2527 57.8998 34.1077 58.3498 35.1652C58.7998 36.2227 58.9123 37.359 58.6873 38.574L54.806 39.2827C55.166 37.1902 55.0085 35.5815 54.3335 34.4565C53.681 33.3315 52.6123 32.769 51.1273 32.769C49.9798 32.769 49.0573 33.1065 48.3598 33.7815C47.6848 34.4565 47.3473 35.424 47.3473 36.684C47.3473 37.719 47.6398 38.6302 48.2248 39.4177C48.8323 40.2052 49.8223 40.8127 51.1948 41.2402L54.3335 42.1852C56.0435 42.6802 57.326 43.434 58.181 44.4465C59.036 45.4365 59.4635 46.8202 59.4635 48.5977C59.4635 49.8577 59.171 50.994 58.586 52.0065C58.0235 52.9965 57.1573 53.784 55.9873 54.369C54.8398 54.9315 53.3998 55.2127 51.6673 55.2127C50.4073 55.2127 49.2148 55.0327 48.0898 54.6727C46.9648 54.2902 46.0198 53.6715 45.2548 52.8165C44.5123 51.9615 44.0398 50.8027 43.8373 49.3402L46.0985 48.5302C46.211 49.9702 46.526 51.0952 47.0435 51.9052C47.5835 52.6927 48.2473 53.244 49.0348 53.559C49.8448 53.874 50.711 54.0315 51.6335 54.0315ZM84.9287 53.9302V54.8752H75.6812V53.9302L77.5375 53.694C77.8975 53.649 78.1112 53.559 78.1787 53.424C78.2462 53.2665 78.28 52.8052 78.28 52.0402V43.8727H69.4037V52.0402C69.4037 52.8052 69.4375 53.2665 69.505 53.424C69.5725 53.559 69.7862 53.649 70.1462 53.694L72.0025 53.9302V54.8752H62.755V53.9302L64.6112 53.694C64.9712 53.649 65.185 53.559 65.2525 53.424C65.32 53.2665 65.3537 52.8052 65.3537 52.0402V34.7602C65.3537 33.9952 65.32 33.5452 65.2525 33.4102C65.185 33.2527 64.9712 33.1515 64.6112 33.1065L62.755 32.8702V31.9252H72.0025V32.8702L70.1462 33.1065C69.7862 33.1515 69.5725 33.2527 69.505 33.4102C69.4375 33.5452 69.4037 33.9952 69.4037 34.7602V42.6915H78.28V34.7602C78.28 33.9952 78.2462 33.5452 78.1787 33.4102C78.1112 33.2527 77.8975 33.1515 77.5375 33.1065L75.6812 32.8702V31.9252H84.9287V32.8702L83.0725 33.1065C82.7125 33.1515 82.4987 33.2527 82.4312 33.4102C82.3637 33.5452 82.33 33.9952 82.33 34.7602V52.0402C82.33 52.8052 82.3637 53.2665 82.4312 53.424C82.4987 53.559 82.7125 53.649 83.0725 53.694L84.9287 53.9302Z" fill="#A18C5D"/>
</mask>
<g mask="url(#mask0_41_216)">
<path d="M38.5 36.5L19.5 29L0 28V56.5H87V27L66 29L48 36.5H38.5Z" fill="#9A865B"/>
</g>
<path d="M44 23L45.3471 27.1459H49.7063L46.1796 29.7082L47.5267 33.8541L44 31.2918L40.4733 33.8541L41.8204 29.7082L38.2937 27.1459H42.6529L44 23Z" fill="#9A865B"/>
</svg>
