<?xml version="1.0" encoding="utf-8"?>
<!-- Generator: Adobe Illustrator 25.2.3, SVG Export Plug-In . SVG Version: 6.00 Build 0)  -->
<svg version="1.1" id="Layer_1" xmlns="http://www.w3.org/2000/svg" xmlns:xlink="http://www.w3.org/1999/xlink" x="0px" y="0px"
	 width="87px" height="60px" viewBox="0 0 87 60" style="enable-background:new 0 0 87 60;" xml:space="preserve">
<style type="text/css">
	.st0{fill:#9A865B;}
	.st1{fill:#A18C5D;}
</style>
<g>
	<path class="st0" d="M71.7,11h0.7l0.8-2.6c0.1-0.2,0.1-0.3,0.2-0.4c0-0.1,0.1-0.1,0.3-0.2c0.2,0,0.4,0,0.8,0h2.4V21
		c0,0.5,0,0.9-0.1,1c0,0.1-0.2,0.2-0.4,0.2L75,22.3V23h5.6l0.9-0.4v-0.3l-1.3-0.2c-0.3,0-0.4-0.1-0.4-0.2c0-0.1-0.1-0.4-0.1-1V7.8
		H82c0.4,0,0.6,0,0.8,0c0.2,0,0.3,0.1,0.3,0.2c0.1,0.1,0.1,0.2,0.2,0.4L84,11h0.7V7H71.7V11z"/>
	<path class="st0" d="M12.1,22.5c0.8-0.4,1.3-0.8,1.6-1.4c0.3-0.6,0.5-1.2,0.5-2v-0.7c0-1-0.3-1.8-1-2.4c-0.6-0.6-1.5-1.1-2.7-1.3
		c1-0.3,1.7-0.7,2.2-1.2c0.5-0.6,0.8-1.3,0.8-2.1v-0.6c0-0.7-0.2-1.3-0.5-1.9c-0.3-0.6-0.8-1-1.6-1.4C10.8,7.2,9.8,7,8.5,7H2v0.7
		l1.3,0.2c0.3,0,0.4,0.1,0.4,0.2c0,0.1,0.1,0.4,0.1,0.9V21c0,0.2,0,0.4,0,0.6L7.2,23h1.9C10.4,23,11.4,22.8,12.1,22.5z M6.6,7.8h1.9
		c0.7,0,1.2,0.2,1.5,0.7c0.3,0.5,0.5,1.2,0.5,2.2v0.8c0,1-0.2,1.7-0.5,2.2c-0.3,0.5-0.9,0.7-1.5,0.7H6.6V7.8z M6.6,15.2h2.4
		c1.4,0,2.2,1,2.2,3.1v0.8c0,1.1-0.2,1.9-0.6,2.4c-0.4,0.5-0.9,0.7-1.6,0.7H6.6V15.2z"/>
	<path class="st0" d="M63.5,23.2c2.1,0,3.7-0.6,4.8-1.9c1.1-1.3,1.6-3.2,1.6-5.6v-1.5c0-2.4-0.5-4.3-1.6-5.6
		c-1.1-1.3-2.7-1.9-4.8-1.9c-2.1,0-3.7,0.6-4.8,1.9c-1.1,1.3-1.6,3.1-1.6,5.6v1.5c0,2.4,0.5,4.3,1.6,5.6
		C59.8,22.6,61.4,23.2,63.5,23.2z M60.2,13.1c0-1.4,0.1-2.5,0.4-3.2c0.2-0.8,0.6-1.4,1.1-1.7c0.5-0.3,1.1-0.5,1.9-0.5
		c0.8,0,1.4,0.2,1.9,0.5c0.5,0.3,0.9,0.9,1.1,1.7c0.2,0.8,0.4,1.9,0.4,3.2v3.8c0,1.4-0.1,2.4-0.4,3.2s-0.6,1.4-1.1,1.7
		c-0.5,0.3-1.1,0.5-1.9,0.5c-0.8,0-1.4-0.2-1.9-0.5c-0.5-0.4-0.9-0.9-1.1-1.7c-0.2-0.8-0.4-1.9-0.4-3.2V13.1z"/>
	<path class="st0" d="M25.5,22.2l-1.3,0.2V23h6.5v-0.7l-1.3-0.2c-0.2,0-0.3-0.1-0.4-0.1c-0.1,0-0.1-0.1-0.2-0.3
		c-0.1-0.2-0.1-0.4-0.3-0.8L24,7h-2l-4.5,14c-0.1,0.3-0.2,0.6-0.3,0.8c-0.1,0.2-0.1,0.3-0.2,0.3c-0.1,0-0.2,0.1-0.4,0.1l-1.3,0.2V23
		h4.5v-0.7l-1.3-0.2c-0.3,0-0.4-0.1-0.4-0.2c0-0.1,0.1-0.4,0.2-1l0.9-2.9h5.4l0.9,2.9c0.2,0.5,0.2,0.9,0.2,1
		C25.9,22.1,25.7,22.1,25.5,22.2z M19.6,17.3l2.5-7.8l2.4,7.8H19.6z"/>
	<path class="st0" d="M45.8,22c0,0.1-0.2,0.2-0.4,0.2l-1.3,0.2V23h11.2v-4h-0.7l-0.8,2.6c0,0.2-0.1,0.3-0.2,0.4
		c0,0.1-0.1,0.1-0.3,0.2c-0.2,0-0.4,0-0.8,0h-3.9V9c0-0.5,0-0.8,0.1-0.9c0-0.1,0.2-0.2,0.4-0.2l1.3-0.2V7h-6.4v0.7l1.3,0.2
		c0.3,0,0.4,0.1,0.4,0.2c0,0.1,0.1,0.4,0.1,0.9V21C45.9,21.6,45.9,21.9,45.8,22z"/>
	<path class="st0" d="M33.3,22c0,0.1-0.2,0.2-0.4,0.2l-1.3,0.2V23h11.2v-4h-0.7l-0.8,2.6c0,0.2-0.1,0.3-0.2,0.4
		c0,0.1-0.1,0.1-0.3,0.2c-0.2,0-0.4,0-0.8,0h-3.9V9c0-0.5,0-0.8,0.1-0.9c0-0.1,0.2-0.2,0.4-0.2L38,7.7V7h-6.4v0.7l1.3,0.2
		c0.3,0,0.4,0.1,0.4,0.2c0,0.1,0.1,0.4,0.1,0.9V21C33.4,21.6,33.3,21.9,33.3,22z"/>
</g>
<path class="st0" d="M86.7,20.7c-0.1-0.2-0.2-0.3-0.4-0.4c0,0,0,0,0,0c-0.1,0-0.1,0-0.2,0c0,0-0.1,0-0.1,0c0,0-0.1,0-0.1,0
	c-0.1,0-0.1,0-0.2,0L48.6,34.6c-3.3,1.3-6.9,1.3-10.2,0L1.3,20.3c0,0-0.1,0-0.1,0c-0.1,0-0.1,0-0.2,0c0,0-0.1,0-0.1,0
	c0,0-0.1,0-0.1,0c0,0-0.1,0.1-0.1,0.1c0,0-0.1,0-0.1,0.1c0,0-0.1,0.1-0.1,0.1c0,0-0.1,0.1-0.1,0.1c0,0,0,0,0,0c0,0,0,0,0,0
	c0,0,0,0.1,0,0.1c0,0.1,0,0.1,0,0.2c0,0,0,0.1,0,0.1c0,0,0,0.1,0,0.1c0,0,0.1,0.1,0.1,0.1c0,0,0,0.1,0.1,0.1c0,0,0.1,0.1,0.1,0.1
	c0,0,0.1,0.1,0.1,0.1l36.7,15.5c1.9,0.8,4,1.2,6.1,1.2c2.1,0,4.2-0.4,6.1-1.2l36.7-15.5C86.7,21.5,86.8,21.1,86.7,20.7z"/>
<path class="st0" d="M44,23l1.3,4.1h4.4l-3.5,2.6l1.3,4.1L44,31.3l-3.5,2.6l1.3-4.1l-3.5-2.6h4.4L44,23z"/>
<g>
	<path class="st1" d="M23.7,52c-0.2,0.5-0.3,0.9-0.4,1.1c-0.1,0.2-0.2,0.4-0.3,0.4c-0.1,0-0.3,0.1-0.5,0.1l-1.9,0.2v0.9h6.5v-0.9
		l-1.9-0.2c-0.4,0-0.6-0.1-0.6-0.3c0-0.2,0.1-0.6,0.3-1.4l1.3-4.2h7.8l1.3,4.2c0.2,0.8,0.3,1.2,0.3,1.4c0,0.1-0.2,0.2-0.6,0.3
		l-1.9,0.2v0.9h9.3v-0.9l-1.9-0.2c-0.2,0-0.4-0.1-0.5-0.1c-0.1-0.1-0.2-0.2-0.3-0.4c-0.1-0.2-0.2-0.6-0.4-1.1l-5.9-18.2L30,32.4
		L23.7,52z M26.7,46.7l3.5-11.2l3.5,11.2H26.7z"/>
	<path class="st1" d="M49.1,44.9l3.1,0.9c1.5,0.5,2.6,1,3.2,1.7c0.6,0.7,0.9,1.5,0.9,2.5c0,1.4-0.5,2.4-1.4,3
		c-0.9,0.6-2,0.9-3.3,0.9c-0.9,0-1.8-0.2-2.6-0.5c-0.8-0.3-1.5-0.9-2-1.7c-0.5-0.8-0.8-1.9-0.9-3.4l-2.3,0.8
		c0.2,1.5,0.7,2.6,1.4,3.5c0.8,0.9,1.7,1.5,2.8,1.9c1.1,0.4,2.3,0.5,3.6,0.5c1.7,0,3.2-0.3,4.3-0.8c1.2-0.6,2-1.4,2.6-2.4
		c0.6-1,0.9-2.1,0.9-3.4c0-1.8-0.4-3.2-1.3-4.2c-0.9-1-2.1-1.8-3.8-2.3l-3.1-0.9c-1.4-0.4-2.4-1-3-1.8c-0.6-0.8-0.9-1.7-0.9-2.7
		l-3.1,1.3c0,1.7,0.4,3.2,1.2,4.4C46.3,43.6,47.5,44.4,49.1,44.9z"/>
	<path class="st1" d="M16,54.1c1.1-0.5,1.9-1.2,2.4-2c0.5-0.9,0.7-1.8,0.7-2.8v-0.9c0-1.4-0.5-2.6-1.4-3.5c-0.9-0.9-2.2-1.5-3.9-1.8
		c1.4-0.4,2.5-1,3.2-1.8c0.7-0.9,1.1-1.9,1.1-3v-0.9c0-1-0.2-1.9-0.7-2.7c-0.4-0.8-1.2-1.5-2.3-2c-1.1-0.5-2.5-0.7-4.3-0.7H1.5v0.9
		l1.9,0.2c0.4,0,0.6,0.1,0.6,0.3C4,33.5,4,34,4,34.8V52c0,0.8,0,1.2-0.1,1.4c-0.1,0.1-0.3,0.2-0.6,0.3l-1.9,0.2v0.9h10.2
		C13.4,54.9,14.9,54.6,16,54.1z M8.1,33.1h2.7c1,0,1.7,0.3,2.2,1c0.5,0.7,0.7,1.7,0.7,3.2v1.1c0,1.4-0.2,2.5-0.7,3.2
		c-0.5,0.7-1.2,1-2.2,1H8.1V33.1z M8.1,43.7h3.5c2.1,0,3.1,1.5,3.1,4.5v1.1c0,1.6-0.3,2.7-0.8,3.4c-0.5,0.7-1.3,1-2.3,1H8.1V43.7z"
		/>
	<path class="st1" d="M54.3,34.5c0.7,1.1,0.8,2.7,0.5,4.8l3.9-0.7c0.2-1.2,0.1-2.4-0.3-3.4c-0.4-0.9-1-1.6-1.9-2.3L54,34
		C54.1,34.1,54.2,34.3,54.3,34.5z"/>
	<path class="st1" d="M75.7,32.9l1.9,0.2c0.4,0,0.6,0.1,0.6,0.3c0.1,0.1,0.1,0.6,0.1,1.3v7.9h-8.9v-7.9c0-0.8,0-1.2,0.1-1.3
		c0.1-0.2,0.3-0.3,0.6-0.3l1.9-0.2v-0.9h-9.2v0.9l1.9,0.2c0.4,0,0.6,0.1,0.6,0.3c0.1,0.1,0.1,0.6,0.1,1.3V52c0,0.8,0,1.2-0.1,1.4
		c-0.1,0.1-0.3,0.2-0.6,0.3l-1.9,0.2v0.9H72v-0.9l-1.9-0.2c-0.4,0-0.6-0.1-0.6-0.3c-0.1-0.2-0.1-0.6-0.1-1.4v-8.2h8.9V52
		c0,0.8,0,1.2-0.1,1.4c-0.1,0.1-0.3,0.2-0.6,0.3l-1.9,0.2v0.9h9.2v-0.9l-1.9-0.2c-0.4,0-0.6-0.1-0.6-0.3c-0.1-0.2-0.1-0.6-0.1-1.4
		V34.8c0-0.8,0-1.2,0.1-1.3c0.1-0.2,0.3-0.3,0.6-0.3l1.9-0.2v-0.9h-9.2V32.9z"/>
</g>
</svg>
