<svg xmlns="http://www.w3.org/2000/svg" fill="none" viewBox="0 0 36 15" width="36" height="15">
  <path fill="#fff" d="M35.596 11.573h-1.82l.301-1.203h-3.644l-.3 1.203h-1.761v-.247c.027-.136.05-.278.085-.43.32-1.297 1.172-2.578 2.644-2.578.583 0 1.162.222 1.083 1.028h2.167c.085-.376.229-1.016-.18-1.605-.462-.64-1.393-.897-2.6-.897-.858 0-2.114.137-3.2.846V1.15h7.222v10.424l.003-.001Zm-4.26 1.76a6.958 6.958 0 0 1-1.214.125c-1.041 0-1.765-.484-1.781-1.613h3.364l-.37 1.489ZM27.172 7.38l-.004 1.494a6.008 6.008 0 0 0-.962 2.066 4.132 4.132 0 0 0-.115.632h-1.06l.906-4.303-3.053-.003-2.733 4.308h-.198V1.148h7.218v6.231Zm-4.03 4.194h-1.086L23.7 8.987l-.558 2.586ZM18.76 7.258h-1.807l-1.24 4.315h-1.915c.977-.36 1.57-1.051 1.753-2.074.152-.795.08-1.319-.244-1.71-.487-.583-1.461-.533-2.328-.533l-1.432.002v-6.11h7.213v6.11Zm-1.156 4.315.76-2.699.028 2.699h-.788Zm-5.253-1.027h-.003c-.07.004-.14.01-.22.01-.106 0-.189.004-.266.004l-.462-.004.213-.79.102-.393.242-.918c.107 0 .212-.004.313-.004h.359c.61 0 .996.034 1.137.23.107.148.094.403-.034.79-.217.668-.493 1.006-1.381 1.074m-2.007-2.904-.114.374-1.032 3.437-.04.12h-3.4l-.265-.559L9.157 7.27H6.804l-2.865 3.086.928-3.086H3.131V1.15h7.213v6.493-.001ZM28.1.87v7.015a4.854 4.854 0 0 0-.647.624V.87h-7.77v6.388h-.643V.87h-7.771v6.398h-.643V.87H2.853v7.292L.87 14.773h1.744l.875-2.928h.252l1.446 2.928h2.107L5.89 11.845h3.185l-.884 2.928h1.905l.872-2.919h.418v-.008h4.243l-.84 2.919h1.92l.816-2.92h.864l.024 2.92h1.611l1.85-2.92h1.212l-.625 2.92h1.892l.613-2.92h1.094c-.043.906.188 1.727.788 2.281.734.675 1.859.803 2.692.803 1.14 0 2.323-.163 3.513-.432l.656-2.652h2.16V.87H28.1Z"/>
</svg>
